<svg xmlns="http://www.w3.org/2000/svg" width="100%" viewBox="0 0 2553.18 1617.00" style="max-width: 2553.18px; background-color: #282a36;" font-family="&quot;trebuchet ms&quot;, verdana, arial, sans-serif" font-size="16.00">
  <g transform="translate(0.00,0.00)">
    <g class="edgePaths">
      <path d="M1431.97,1032.00 L1431.97,1160.10 Q1431.97,1165.10 1426.97,1165.10 L158.84,1165.10 Q153.84,1165.10 153.84,1170.10 L153.84,1187.00" stroke="#6272a4" stroke-width="1.00" fill="none" stroke-linecap="round" stroke-linejoin="round" />
      <path d="M1510.90,1032.00 L1510.90,1160.10 Q1510.90,1165.10 1505.90,1165.10 L362.67,1165.10 Q357.67,1165.10 357.67,1170.10 L357.67,1187.00" stroke="#6272a4" stroke-width="1.00" fill="none" stroke-linecap="round" stroke-linejoin="round" />
      <path d="M1597.83,1032.00 L1597.83,1048.90 Q1597.83,1053.90 1592.83,1053.90 L752.91,1053.90 Q747.91,1053.90 747.91,1058.90 L747.91,1187.00" stroke="#6272a4" stroke-width="1.00" fill="none" stroke-linecap="round" stroke-linejoin="round" />
      <path d="M1684.76,1032.00 L1684.76,1048.90 Q1684.76,1053.90 1689.76,1053.90 L1697.26,1053.90 Q1702.26,1053.90 1702.26,1058.90 L1702.26,1187.00" stroke="#6272a4" stroke-width="1.00" fill="none" stroke-linecap="round" stroke-linejoin="round" />
      <path d="M253.18,984.00 L253.18,1152.40 Q253.18,1157.40 248.18,1157.40 L21.00,1157.40 Q16.00,1157.40 16.00,1162.40 L16.00,1187.00" stroke="#6272a4" stroke-width="1.00" fill="none" stroke-linecap="round" stroke-linejoin="round" />
      <path d="M330.55,984.00 L330.55,1152.40 Q330.55,1157.40 325.55,1157.40 L224.84,1157.40 Q219.84,1157.40 219.84,1162.40 L219.84,1187.00" stroke="#6272a4" stroke-width="1.00" fill="none" stroke-linecap="round" stroke-linejoin="round" />
      <path d="M415.92,984.00 L415.92,1167.00 Q415.92,1172.00 420.92,1172.00 L605.07,1172.00 Q610.07,1172.00 610.07,1177.00 L610.07,1187.00" stroke="#6272a4" stroke-width="1.00" fill="none" stroke-linecap="round" stroke-linejoin="round" />
      <path d="M493.30,984.00 L493.30,1167.00 Q493.30,1172.00 498.30,1172.00 L1635.02,1172.00 Q1640.02,1172.00 1640.02,1177.00 L1640.02,1187.00" stroke="#6272a4" stroke-width="1.00" fill="none" stroke-linecap="round" stroke-linejoin="round" />
      <path d="M302.90,603.00 L242.18,603.00 Q237.18,603.00 237.18,608.00 L237.18,1162.00 Q237.18,1167.00 232.18,1167.00 L89.92,1167.00 Q84.92,1167.00 84.92,1172.00 L84.92,1187.00" stroke="#6272a4" stroke-width="1.00" fill="none" stroke-linecap="round" stroke-linejoin="round" />
      <path d="M398.06,603.00 L504.30,603.00 Q509.30,603.00 509.30,608.00 L509.30,1162.00 Q509.30,1167.00 504.30,1167.00 L293.75,1167.00 Q288.75,1167.00 288.75,1172.00 L288.75,1187.00" stroke="#6272a4" stroke-width="1.00" fill="none" stroke-linecap="round" stroke-linejoin="round" />
      <path d="M501.23,603.00 L501.23,1152.40 Q501.23,1157.40 506.23,1157.40 L673.99,1157.40 Q678.99,1157.40 678.99,1162.40 L678.99,1187.00" stroke="#6272a4" stroke-width="1.00" fill="none" stroke-linecap="round" stroke-linejoin="round" />
      <path d="M1760.22,350.00 L1891.51,350.00 Q1896.51,350.00 1896.51,355.00 L1896.51,1152.40 Q1896.51,1157.40 1891.51,1157.40 L1737.21,1157.40 Q1732.21,1157.40 1732.21,1162.40 L1732.21,1187.00" stroke="#6272a4" stroke-width="1.00" fill="none" stroke-linecap="round" stroke-linejoin="round" />
      <path d="M1704.20,350.00 L1594.69,350.00 Q1589.69,350.00 1589.69,355.00 L1589.69,751.40 Q1589.69,756.40 1594.69,756.40 L1727.21,756.40 Q1732.21,756.40 1732.21,761.40 L1732.21,786.00" stroke="#6272a4" stroke-width="1.00" fill="none" stroke-linecap="round" stroke-linejoin="round" />
      <path d="M1600.16,350.00 L1600.16,765.00 Q1600.16,770.00 1595.16,770.00 L353.41,770.00 Q348.41,770.00 348.41,775.00 L348.41,786.00" stroke="#6272a4" stroke-width="1.00" fill="none" stroke-linecap="round" stroke-linejoin="round" />
      <path d="M1816.25,350.00 L1891.51,350.00 Q1896.51,350.00 1896.51,355.00 L1896.51,1352.40 Q1896.51,1357.40 1901.51,1357.40 L2198.22,1357.40 Q2203.22,1357.40 2203.22,1362.40 L2203.22,1387.00" stroke="#6272a4" stroke-width="1.00" fill="none" stroke-linecap="round" stroke-linejoin="round" />
      <path d="M1864.27,350.00 L1891.51,350.00 Q1896.51,350.00 1896.51,355.00 L1896.51,1352.40 Q1896.51,1357.40 1901.51,1357.40 L2532.18,1357.40 Q2537.18,1357.40 2537.18,1362.40 L2537.18,1387.00" stroke="#6272a4" stroke-width="1.00" fill="none" stroke-linecap="round" stroke-linejoin="round" />
      <path d="M1648.18,350.00 L1648.18,367.30 Q1648.18,372.30 1643.18,372.30 L601.39,372.30 Q596.39,372.30 596.39,377.30 L596.39,405.00" stroke="#6272a4" stroke-width="1.00" fill="none" stroke-linecap="round" stroke-linejoin="round" />
      <path d="M1880.51,627.00 L1880.51,644.30 Q1880.51,649.30 1885.51,649.30 L1984.14,649.30 Q1989.14,649.30 1989.14,654.30 L1989.14,786.00" stroke="#6272a4" stroke-width="1.00" fill="none" stroke-linecap="round" stroke-linejoin="round" />
      <path d="M2046.54,912.00 L2046.54,1187.00" stroke="#6272a4" stroke-width="1.00" fill="none" stroke-linecap="round" stroke-linejoin="round" />
      <path d="M1605.69,627.00 L1605.69,758.70 Q1605.69,763.70 1610.69,763.70 L1758.69,763.70 Q1763.69,763.70 1763.69,768.70 L1763.69,786.00" stroke="#6272a4" stroke-width="1.00" fill="none" stroke-linecap="round" stroke-linejoin="round" />
      <path d="M1763.69,1032.00 L1775.50,1032.00 Q1780.50,1032.00 1780.50,1037.00 L1780.50,1371.60 Q1780.50,1376.60 1785.50,1376.60 L2304.50,1376.60 Q2309.50,1376.60 2309.50,1381.60 L2309.50,1387.00" stroke="#6272a4" stroke-width="1.00" fill="none" stroke-linecap="round" stroke-linejoin="round" />
      <path d="M1764.50,1337.00 L1764.50,1367.00 Q1764.50,1372.00 1769.50,1372.00 L1944.78,1372.00 Q1949.78,1372.00 1949.78,1377.00 L1949.78,1387.00" stroke="#6272a4" stroke-width="1.00" fill="none" stroke-linecap="round" stroke-linejoin="round" />
      <path d="M596.39,603.00 L596.39,756.30 Q596.39,761.30 601.39,761.30 L1426.97,761.30 Q1431.97,761.30 1431.97,766.30 L1431.97,786.00" stroke="#6272a4" stroke-width="1.00" fill="none" stroke-linecap="round" stroke-linejoin="round" />
      <path d="M816.33,579.00 L816.33,601.10 Q816.33,606.10 811.33,606.10 L783.32,606.10 Q778.32,606.10 778.32,611.10 L778.32,786.00" stroke="#6272a4" stroke-width="1.00" fill="none" stroke-linecap="round" stroke-linejoin="round" />
      <path d="M953.74,579.00 L953.74,753.90 Q953.74,758.90 958.74,758.90 L973.41,758.90 Q978.41,758.90 978.41,763.90 L978.41,786.00" stroke="#6272a4" stroke-width="1.00" fill="none" stroke-linecap="round" stroke-linejoin="round" />
      <path d="M1091.15,579.00 L1091.15,751.40 Q1091.15,756.40 1096.15,756.40 L1534.88,756.40 Q1539.88,756.40 1539.88,761.40 L1539.88,786.00" stroke="#6272a4" stroke-width="1.00" fill="none" stroke-linecap="round" stroke-linejoin="round" />
    </g>
    <g class="nodes">
      <g class="node default" id="--" data-id="--" data-look="classic">
        <rect x="1149.15" y="405.00" width="70.66" height="54.00" fill="#2e303c" stroke="#52535c" stroke-width="1.00" stroke-linejoin="round" />
        <text x="1184.48" y="432.00" text-anchor="middle" dominant-baseline="middle" fill="#f8f8f2">--</text>
      </g>
      <g class="node default" id="AcademicResult" data-id="AcademicResult" data-look="classic">
        <rect x="808.33" y="405.00" width="290.82" height="174.00" fill="#2e303c" stroke="#52535c" stroke-width="1.00" stroke-linejoin="round" />
        <text x="953.74" y="432.00" text-anchor="middle" dominant-baseline="middle" fill="#f8f8f2">AcademicResult</text>
        <line x1="808.33" y1="456.00" x2="1099.15" y2="456.00" stroke="#52535c" stroke-width="1.00" />
        <text x="823.33" y="480.00" text-anchor="start" dominant-baseline="middle" fill="#f8f8f2">+AcademicResultMetric value</text>
        <text x="823.33" y="504.00" text-anchor="start" dominant-baseline="middle" fill="#f8f8f2">+List&lt;Conundrum&gt; linked_notes</text>
        <text x="823.33" y="528.00" text-anchor="start" dominant-baseline="middle" fill="#f8f8f2">+List&lt;Milestone&gt; milestones</text>
        <line x1="808.33" y1="552.00" x2="1099.15" y2="552.00" stroke="#52535c" stroke-width="1.00" />
      </g>
      <g class="node default" id="AcademicResultMetric" data-id="AcademicResultMetric" data-look="classic">
        <rect x="622.46" y="786.00" width="236.54" height="126.00" fill="#2e303c" stroke="#52535c" stroke-width="1.00" stroke-linejoin="round" />
        <text x="740.73" y="813.00" text-anchor="middle" dominant-baseline="middle" fill="#f8f8f2">AcademicResultMetric</text>
        <line x1="622.46" y1="837.00" x2="859.00" y2="837.00" stroke="#52535c" stroke-width="1.00" />
        <text x="637.46" y="861.00" text-anchor="start" dominant-baseline="middle" fill="#f8f8f2">+ComplicatedType value</text>
        <line x1="622.46" y1="885.00" x2="859.00" y2="885.00" stroke="#52535c" stroke-width="1.00" />
      </g>
      <g class="node default" id="Alert" data-id="Alert" data-look="classic">
        <rect x="1958.51" y="786.00" width="176.06" height="126.00" fill="#2e303c" stroke="#52535c" stroke-width="1.00" stroke-linejoin="round" />
        <text x="2046.54" y="813.00" text-anchor="middle" dominant-baseline="middle" fill="#f8f8f2">Alert</text>
        <line x1="1958.51" y1="837.00" x2="2134.58" y2="837.00" stroke="#52535c" stroke-width="1.00" />
        <text x="1973.51" y="861.00" text-anchor="start" dominant-baseline="middle" fill="#f8f8f2">+Datetime value</text>
        <line x1="1958.51" y1="885.00" x2="2134.58" y2="885.00" stroke="#52535c" stroke-width="1.00" />
      </g>
      <g class="node default" id="BibEntry" data-id="BibEntry" data-look="classic">
        <rect x="1632.02" y="1187.00" width="140.48" height="150.00" fill="#2e303c" stroke="#52535c" stroke-width="1.00" stroke-linejoin="round" />
        <text x="1702.26" y="1214.00" text-anchor="middle" dominant-baseline="middle" fill="#f8f8f2">BibEntry</text>
        <line x1="1632.02" y1="1238.00" x2="1772.50" y2="1238.00" stroke="#52535c" stroke-width="1.00" />
        <text x="1647.02" y="1262.00" text-anchor="start" dominant-baseline="middle" fill="#f8f8f2">+String key</text>
        <text x="1647.02" y="1286.00" text-anchor="start" dominant-baseline="middle" fill="#f8f8f2">+Pdf pdf</text>
        <line x1="1632.02" y1="1310.00" x2="1772.50" y2="1310.00" stroke="#52535c" stroke-width="1.00" />
      </g>
      <g class="node default" id="Class" data-id="Class" data-look="classic">
        <rect x="1269.81" y="405.00" width="257.88" height="246.00" fill="#2e303c" stroke="#52535c" stroke-width="1.00" stroke-linejoin="round" />
        <text x="1398.75" y="432.00" text-anchor="middle" dominant-baseline="middle" fill="#f8f8f2">Class</text>
        <line x1="1269.81" y1="456.00" x2="1527.69" y2="456.00" stroke="#52535c" stroke-width="1.00" />
        <text x="1284.81" y="480.00" text-anchor="start" dominant-baseline="middle" fill="#f8f8f2">+List&lt;StudyList&gt; study_lists</text>
        <text x="1284.81" y="504.00" text-anchor="start" dominant-baseline="middle" fill="#f8f8f2">+List&lt;Conundrum&gt; notes</text>
        <text x="1284.81" y="528.00" text-anchor="start" dominant-baseline="middle" fill="#f8f8f2">+List&lt;Typst&gt; notes</text>
        <text x="1284.81" y="552.00" text-anchor="start" dominant-baseline="middle" fill="#f8f8f2">+Option&lt;Subject&gt; subject</text>
        <text x="1284.81" y="576.00" text-anchor="start" dominant-baseline="middle" fill="#f8f8f2">+Option&lt;Topic&gt; topic</text>
        <text x="1284.81" y="600.00" text-anchor="start" dominant-baseline="middle" fill="#f8f8f2">+List&lt;Tag&gt; tags</text>
        <line x1="1269.81" y1="624.00" x2="1527.69" y2="624.00" stroke="#52535c" stroke-width="1.00" />
      </g>
      <g class="node default" id="Conundrum" data-id="Conundrum" data-look="classic">
        <rect x="1423.97" y="786.00" width="347.73" height="246.00" fill="#2e303c" stroke="#52535c" stroke-width="1.00" stroke-linejoin="round" />
        <text x="1597.83" y="813.00" text-anchor="middle" dominant-baseline="middle" fill="#f8f8f2">Conundrum</text>
        <line x1="1423.97" y1="837.00" x2="1771.69" y2="837.00" stroke="#52535c" stroke-width="1.00" />
        <text x="1438.97" y="861.00" text-anchor="start" dominant-baseline="middle" fill="#f8f8f2">+List&lt;BibEntry&gt; bib_entries</text>
        <text x="1438.97" y="885.00" text-anchor="start" dominant-baseline="middle" fill="#f8f8f2">+List&lt;Tag&gt; tags</text>
        <text x="1438.97" y="909.00" text-anchor="start" dominant-baseline="middle" fill="#f8f8f2">+Option&lt;Topic&gt; topic</text>
        <text x="1438.97" y="933.00" text-anchor="start" dominant-baseline="middle" fill="#f8f8f2">+Option&lt;Subject&gt; subject</text>
        <text x="1438.97" y="957.00" text-anchor="start" dominant-baseline="middle" fill="#f8f8f2">+List&lt;Typst&gt; outgoing_typst_links</text>
        <text x="1438.97" y="981.00" text-anchor="start" dominant-baseline="middle" fill="#f8f8f2">+List&lt;Conundrum&gt; outgoing_cdrm_links</text>
        <line x1="1423.97" y1="1005.00" x2="1771.69" y2="1005.00" stroke="#52535c" stroke-width="1.00" />
      </g>
      <g class="node default" id="Datetime" data-id="Datetime" data-look="classic">
        <rect x="1962.07" y="1187.00" width="168.95" height="126.00" fill="#2e303c" stroke="#52535c" stroke-width="1.00" stroke-linejoin="round" />
        <text x="2046.54" y="1214.00" text-anchor="middle" dominant-baseline="middle" fill="#f8f8f2">Datetime</text>
        <line x1="1962.07" y1="1238.00" x2="2131.02" y2="1238.00" stroke="#52535c" stroke-width="1.00" />
        <text x="1977.07" y="1262.00" text-anchor="start" dominant-baseline="middle" fill="#f8f8f2">+Number value</text>
        <line x1="1962.07" y1="1286.00" x2="2131.02" y2="1286.00" stroke="#52535c" stroke-width="1.00" />
      </g>
      <g class="node default" id="Flashcard" data-id="Flashcard" data-look="classic">
        <rect x="294.90" y="405.00" width="309.49" height="198.00" fill="#2e303c" stroke="#52535c" stroke-width="1.00" stroke-linejoin="round" />
        <text x="449.64" y="432.00" text-anchor="middle" dominant-baseline="middle" fill="#f8f8f2">Flashcard</text>
        <line x1="294.90" y1="456.00" x2="604.39" y2="456.00" stroke="#52535c" stroke-width="1.00" />
        <text x="309.90" y="480.00" text-anchor="start" dominant-baseline="middle" fill="#f8f8f2">+List&lt;Tag&gt; tags</text>
        <text x="309.90" y="504.00" text-anchor="start" dominant-baseline="middle" fill="#f8f8f2">+Topic topic</text>
        <text x="309.90" y="528.00" text-anchor="start" dominant-baseline="middle" fill="#f8f8f2">+Subject subject</text>
        <text x="309.90" y="552.00" text-anchor="start" dominant-baseline="middle" fill="#f8f8f2">+List&lt;Conundrum&gt; further_reading</text>
        <line x1="294.90" y1="576.00" x2="604.39" y2="576.00" stroke="#52535c" stroke-width="1.00" />
      </g>
      <g class="node default" id="Image" data-id="Image" data-look="classic">
        <rect x="2301.50" y="1387.00" width="243.68" height="198.00" fill="#2e303c" stroke="#52535c" stroke-width="1.00" stroke-linejoin="round" />
        <text x="2423.34" y="1414.00" text-anchor="middle" dominant-baseline="middle" fill="#f8f8f2">Image</text>
        <line x1="2301.50" y1="1438.00" x2="2545.18" y2="1438.00" stroke="#52535c" stroke-width="1.00" />
        <text x="2316.50" y="1462.00" text-anchor="start" dominant-baseline="middle" fill="#f8f8f2">+Bytes content</text>
        <text x="2316.50" y="1486.00" text-anchor="start" dominant-baseline="middle" fill="#f8f8f2">+List&lt;Tag&gt; tags</text>
        <text x="2316.50" y="1510.00" text-anchor="start" dominant-baseline="middle" fill="#f8f8f2">+Option&lt;Subject&gt; subject</text>
        <text x="2316.50" y="1534.00" text-anchor="start" dominant-baseline="middle" fill="#f8f8f2">+Option&lt;Topic&gt; topic</text>
        <line x1="2301.50" y1="1558.00" x2="2545.18" y2="1558.00" stroke="#52535c" stroke-width="1.00" />
      </g>
      <g class="node default" id="Milestone" data-id="Milestone" data-look="classic">
        <rect x="909.00" y="786.00" width="149.39" height="126.00" fill="#2e303c" stroke="#52535c" stroke-width="1.00" stroke-linejoin="round" />
        <text x="983.70" y="813.00" text-anchor="middle" dominant-baseline="middle" fill="#f8f8f2">Milestone</text>
        <line x1="909.00" y1="837.00" x2="1058.39" y2="837.00" stroke="#52535c" stroke-width="1.00" />
        <text x="924.00" y="861.00" text-anchor="start" dominant-baseline="middle" fill="#f8f8f2">+String label</text>
        <line x1="909.00" y1="885.00" x2="1058.39" y2="885.00" stroke="#52535c" stroke-width="1.00" />
      </g>
      <g class="node default" id="Pdf" data-id="Pdf" data-look="classic">
        <rect x="1941.78" y="1387.00" width="269.45" height="222.00" fill="#2e303c" stroke="#52535c" stroke-width="1.00" stroke-linejoin="round" />
        <text x="2076.50" y="1414.00" text-anchor="middle" dominant-baseline="middle" fill="#f8f8f2">Pdf</text>
        <line x1="1941.78" y1="1438.00" x2="2211.22" y2="1438.00" stroke="#52535c" stroke-width="1.00" />
        <text x="1956.78" y="1462.00" text-anchor="start" dominant-baseline="middle" fill="#f8f8f2">+Bytes content</text>
        <text x="1956.78" y="1486.00" text-anchor="start" dominant-baseline="middle" fill="#f8f8f2">+List&lt;Tag&gt; tags</text>
        <text x="1956.78" y="1510.00" text-anchor="start" dominant-baseline="middle" fill="#f8f8f2">+Option&lt;Subject&gt; subject</text>
        <text x="1956.78" y="1534.00" text-anchor="start" dominant-baseline="middle" fill="#f8f8f2">+Option&lt;Topic&gt; topic</text>
        <text x="1956.78" y="1558.00" text-anchor="start" dominant-baseline="middle" fill="#f8f8f2">+Option&lt;Typst&gt; typst_source</text>
        <line x1="1941.78" y1="1582.00" x2="2211.22" y2="1582.00" stroke="#52535c" stroke-width="1.00" />
      </g>
      <g class="node default" id="StudyList" data-id="StudyList" data-look="classic">
        <rect x="1592.16" y="8.00" width="280.10" height="342.00" fill="#2e303c" stroke="#52535c" stroke-width="1.00" stroke-linejoin="round" />
        <text x="1732.21" y="35.00" text-anchor="middle" dominant-baseline="middle" fill="#f8f8f2">StudyList</text>
        <line x1="1592.16" y1="59.00" x2="1872.27" y2="59.00" stroke="#52535c" stroke-width="1.00" />
        <text x="1607.16" y="83.00" text-anchor="start" dominant-baseline="middle" fill="#f8f8f2">+List&lt;BibEntry&gt; bib_entries</text>
        <text x="1607.16" y="107.00" text-anchor="start" dominant-baseline="middle" fill="#f8f8f2">+List&lt;Conundrum&gt; cdrm</text>
        <text x="1607.16" y="131.00" text-anchor="start" dominant-baseline="middle" fill="#f8f8f2">+List&lt;Typst&gt; typst</text>
        <text x="1607.16" y="155.00" text-anchor="start" dominant-baseline="middle" fill="#f8f8f2">+List&lt;Pdf&gt; pdfs</text>
        <text x="1607.16" y="179.00" text-anchor="start" dominant-baseline="middle" fill="#f8f8f2">+List&lt;Flashcard&gt; flashcards</text>
        <text x="1607.16" y="203.00" text-anchor="start" dominant-baseline="middle" fill="#f8f8f2">+List&lt;Image&gt; images</text>
        <text x="1607.16" y="227.00" text-anchor="start" dominant-baseline="middle" fill="#f8f8f2">+Subject subject</text>
        <text x="1607.16" y="251.00" text-anchor="start" dominant-baseline="middle" fill="#f8f8f2">+Topic topic</text>
        <text x="1607.16" y="275.00" text-anchor="start" dominant-baseline="middle" fill="#f8f8f2">+List&lt;tags&gt; tag</text>
        <text x="1607.16" y="299.00" text-anchor="start" dominant-baseline="middle" fill="#f8f8f2">+List&lt;AcademicResult&gt; results</text>
        <line x1="1592.16" y1="323.00" x2="1872.27" y2="323.00" stroke="#52535c" stroke-width="1.00" />
      </g>
      <g class="node default" id="Subject" data-id="Subject" data-look="classic">
        <rect x="602.07" y="1187.00" width="153.84" height="126.00" fill="#2e303c" stroke="#52535c" stroke-width="1.00" stroke-linejoin="round" />
        <text x="678.99" y="1214.00" text-anchor="middle" dominant-baseline="middle" fill="#f8f8f2">Subject</text>
        <line x1="602.07" y1="1238.00" x2="755.91" y2="1238.00" stroke="#52535c" stroke-width="1.00" />
        <text x="617.07" y="1262.00" text-anchor="start" dominant-baseline="middle" fill="#f8f8f2">+String value</text>
        <line x1="602.07" y1="1286.00" x2="755.91" y2="1286.00" stroke="#52535c" stroke-width="1.00" />
      </g>
      <g class="node default" id="Tag" data-id="Tag" data-look="classic">
        <rect x="8.00" y="1187.00" width="153.84" height="126.00" fill="#2e303c" stroke="#52535c" stroke-width="1.00" stroke-linejoin="round" />
        <text x="84.92" y="1214.00" text-anchor="middle" dominant-baseline="middle" fill="#f8f8f2">Tag</text>
        <line x1="8.00" y1="1238.00" x2="161.84" y2="1238.00" stroke="#52535c" stroke-width="1.00" />
        <text x="23.00" y="1262.00" text-anchor="start" dominant-baseline="middle" fill="#f8f8f2">+String value</text>
        <line x1="8.00" y1="1286.00" x2="161.84" y2="1286.00" stroke="#52535c" stroke-width="1.00" />
      </g>
      <g class="node default" id="Task" data-id="Task" data-look="classic">
        <rect x="1597.69" y="405.00" width="290.82" height="222.00" fill="#2e303c" stroke="#52535c" stroke-width="1.00" stroke-linejoin="round" />
        <text x="1743.10" y="432.00" text-anchor="middle" dominant-baseline="middle" fill="#f8f8f2">Task</text>
        <line x1="1597.69" y1="456.00" x2="1888.51" y2="456.00" stroke="#52535c" stroke-width="1.00" />
        <text x="1612.69" y="480.00" text-anchor="start" dominant-baseline="middle" fill="#f8f8f2">+String content</text>
        <text x="1612.69" y="504.00" text-anchor="start" dominant-baseline="middle" fill="#f8f8f2">+List&lt;Conundrum&gt; linked_notes</text>
        <text x="1612.69" y="528.00" text-anchor="start" dominant-baseline="middle" fill="#f8f8f2">+Datetime due_at</text>
        <text x="1612.69" y="552.00" text-anchor="start" dominant-baseline="middle" fill="#f8f8f2">+Datetime ctime</text>
        <text x="1612.69" y="576.00" text-anchor="start" dominant-baseline="middle" fill="#f8f8f2">+Datetime utime</text>
        <line x1="1597.69" y1="600.00" x2="1888.51" y2="600.00" stroke="#52535c" stroke-width="1.00" />
      </g>
      <g class="node default" id="Topic" data-id="Topic" data-look="classic">
        <rect x="211.84" y="1187.00" width="153.84" height="126.00" fill="#2e303c" stroke="#52535c" stroke-width="1.00" stroke-linejoin="round" />
        <text x="288.75" y="1214.00" text-anchor="middle" dominant-baseline="middle" fill="#f8f8f2">Topic</text>
        <line x1="211.84" y1="1238.00" x2="365.67" y2="1238.00" stroke="#52535c" stroke-width="1.00" />
        <text x="226.84" y="1262.00" text-anchor="start" dominant-baseline="middle" fill="#f8f8f2">+String value</text>
        <line x1="211.84" y1="1286.00" x2="365.67" y2="1286.00" stroke="#52535c" stroke-width="1.00" />
      </g>
      <g class="node default" id="Typst" data-id="Typst" data-look="classic">
        <rect x="245.18" y="786.00" width="256.12" height="198.00" fill="#2e303c" stroke="#52535c" stroke-width="1.00" stroke-linejoin="round" />
        <text x="373.24" y="813.00" text-anchor="middle" dominant-baseline="middle" fill="#f8f8f2">Typst</text>
        <line x1="245.18" y1="837.00" x2="501.30" y2="837.00" stroke="#52535c" stroke-width="1.00" />
        <text x="260.18" y="861.00" text-anchor="start" dominant-baseline="middle" fill="#f8f8f2">+List&lt;BibEntry&gt; bib_entries</text>
        <text x="260.18" y="885.00" text-anchor="start" dominant-baseline="middle" fill="#f8f8f2">+List&lt;Tag&gt; tags</text>
        <text x="260.18" y="909.00" text-anchor="start" dominant-baseline="middle" fill="#f8f8f2">+Option&lt;Topic&gt; topic</text>
        <text x="260.18" y="933.00" text-anchor="start" dominant-baseline="middle" fill="#f8f8f2">+Option&lt;Subject&gt; subject</text>
        <line x1="245.18" y1="957.00" x2="501.30" y2="957.00" stroke="#52535c" stroke-width="1.00" />
      </g>
    </g>
    <g class="edgeLabels">
      <rect x="1789.01" y="1362.60" width="160.97" height="28.00" fill="#282a36" />
      <text x="1869.50" y="1376.60" text-anchor="middle" dominant-baseline="middle" fill="#f8f8f2">DB Image Support v2</text>
    </g>
  </g>
</svg>
